<?xml version="1.0" encoding="utf-8"?>
<!-- Generator: Adobe Illustrator 24.1.0, SVG Export Plug-In . SVG Version: 6.00 Build 0)  -->
<svg version="1.1" id="Layer_1" xmlns="http://www.w3.org/2000/svg" xmlns:xlink="http://www.w3.org/1999/xlink" x="0px" y="0px"
	 viewBox="0 0 50 50" style="enable-background:new 0 0 50 50;" xml:space="preserve">
<style type="text/css">
	.st0{filter:url(#prefix__a);}
	.st1{fill-rule:evenodd;clip-rule:evenodd;}
	.st2{fill-rule:evenodd;clip-rule:evenodd;fill:#BEBECC;}
	.st3{filter:url(#prefix__c);}
</style>
<filter  filterUnits="objectBoundingBox" height="178.9%" id="prefix__c" width="178.9%" x="-39.5%" y="-39.5%">
	<feOffset  in="SourceAlpha" result="shadowOffsetOuter1"></feOffset>
	<feGaussianBlur  in="shadowOffsetOuter1" result="shadowBlurOuter1" stdDeviation="5"></feGaussianBlur>
	<feColorMatrix  in="shadowBlurOuter1" values="0 0 0 0 0 0 0 0 0 0 0 0 0 0 0 0 0 0 0.0555889423 0"></feColorMatrix>
</filter>
<filter  filterUnits="objectBoundingBox" height="850%" id="prefix__a" width="424.6%" x="-162.3%" y="-375%">
	<feOffset  in="SourceAlpha" result="shadowOffsetOuter1"></feOffset>
	<feGaussianBlur  in="shadowOffsetOuter1" result="shadowBlurOuter1" stdDeviation="5"></feGaussianBlur>
	<feColorMatrix  in="shadowBlurOuter1" values="0 0 0 0 0 0 0 0 0 0 0 0 0 0 0 0 0 0 0.0555889423 0"></feColorMatrix>
</filter>
<g>
	<g transform="translate(0 3)">
		<g class="st0">
			<path id="prefix__b_2_" class="st1" d="M19,44c2.6,0,4.6-1.8,4.6-4h-9.2C14.4,42.2,16.4,44,19,44"/>
		</g>
		<g>
			<path id="prefix__b_1_" class="st2" d="M19,44c2.6,0,4.6-1.8,4.6-4h-9.2C14.4,42.2,16.4,44,19,44"/>
		</g>
		<g>
			<g class="st3">
				<path id="prefix__d_2_" class="st1" d="M36.8,32.4l-3-2.3c-0.6-0.4-0.9-1.1-0.9-1.8V17.9c0-1.8-0.4-3.6-1.1-5.2
					c-0.7-1.6-1.7-3-3-4.3S26,6.2,24.4,5.5c-0.6-0.3-1.3-0.5-1.9-0.6V3.4C22.5,1.5,20.9,0,19,0c-1.9,0-3.5,1.5-3.5,3.4v1.5
					c-0.7,0.2-1.3,0.4-1.9,0.6C12,6.2,10.5,7.2,9.2,8.4c-1.3,1.2-2.3,2.7-3,4.3c-0.7,1.7-1.1,3.4-1.1,5.2v10.5
					c0,0.7-0.3,1.3-0.9,1.8l-3,2.3c-0.6,0.4-1,1-1.1,1.7c-0.2,0.6-0.1,1.2,0.1,1.8c0.2,0.6,0.6,1.1,1.1,1.5c0.6,0.4,1.2,0.6,2,0.6
					h31.5c0.7,0,1.4-0.2,2-0.6c0.5-0.4,0.9-0.9,1.1-1.5c0.2-0.6,0.2-1.2,0.1-1.8C37.7,33.4,37.3,32.8,36.8,32.4"/>
			</g>
			<g>
				<path id="prefix__d_1_" class="st2" d="M36.8,32.4l-3-2.3c-0.6-0.4-0.9-1.1-0.9-1.8V17.9c0-1.8-0.4-3.6-1.1-5.2
					c-0.7-1.6-1.7-3-3-4.3S26,6.2,24.4,5.5c-0.6-0.3-1.3-0.5-1.9-0.6V3.4C22.5,1.5,20.9,0,19,0c-1.9,0-3.5,1.5-3.5,3.4v1.5
					c-0.7,0.2-1.3,0.4-1.9,0.6C12,6.2,10.5,7.2,9.2,8.4c-1.3,1.2-2.3,2.7-3,4.3c-0.7,1.7-1.1,3.4-1.1,5.2v10.5
					c0,0.7-0.3,1.3-0.9,1.8l-3,2.3c-0.6,0.4-1,1-1.1,1.7c-0.2,0.6-0.1,1.2,0.1,1.8c0.2,0.6,0.6,1.1,1.1,1.5c0.6,0.4,1.2,0.6,2,0.6
					h31.5c0.7,0,1.4-0.2,2-0.6c0.5-0.4,0.9-0.9,1.1-1.5c0.2-0.6,0.2-1.2,0.1-1.8C37.7,33.4,37.3,32.8,36.8,32.4"/>
			</g>
		</g>
	</g>
</g>
</svg>
